<?xml version="1.0" encoding="UTF-8"?>
<!DOCTYPE svg PUBLIC "-//W3C//DTD SVG 1.1//EN" "http://www.w3.org/Graphics/SVG/1.1/DTD/svg11.dtd">
<svg version="1.1" xmlns="http://www.w3.org/2000/svg" xmlns:xlink="http://www.w3.org/1999/xlink" x="0" y="0" width="705.826" height="332.5" viewBox="0, 0, 705.826, 332.5">
  <g id="Layer_1">
    <g>
      <g>
        <path d="M42.935,165 C42.935,165 70.935,31.062 114.935,32.005" fill-opacity="0" stroke="#656565" stroke-width="3"/>
        <path d="M184.935,165 C184.935,165 156.935,31.062 112.935,32.005" fill-opacity="0" stroke="#656565" stroke-width="3"/>
      </g>
      <g>
        <path d="M184.935,165 C184.935,165 212.935,298.939 256.935,297.995" fill-opacity="0" stroke="#656565" stroke-width="3"/>
        <path d="M326.935,165 C326.935,165 298.935,298.939 254.935,297.995" fill-opacity="0" stroke="#656565" stroke-width="3"/>
      </g>
    </g>
    <g>
      <g>
        <path d="M326.935,165 C326.935,165 354.935,31.062 398.935,32.005" fill-opacity="0" stroke="#656565" stroke-width="3"/>
        <path d="M468.935,165 C468.935,165 440.935,31.062 396.935,32.005" fill-opacity="0" stroke="#656565" stroke-width="3"/>
      </g>
      <g>
        <path d="M468.935,165 C468.935,165 496.935,298.939 540.935,297.995" fill-opacity="0" stroke="#656565" stroke-width="3"/>
        <path d="M610.935,165 C610.935,165 582.935,298.939 538.935,297.995" fill-opacity="0" stroke="#656565" stroke-width="3"/>
      </g>
    </g>
    <path d="M610.935,165 C610.935,165 638.935,31.062 682.935,32.005" fill-opacity="0" stroke="#656565" stroke-width="3" stroke-dasharray="9,6"/>
    <path d="M5.5,165 L624.326,165" fill-opacity="0" stroke="#000000" stroke-width="3"/>
    <path d="M613.935,165 L701.326,165" fill-opacity="0" stroke="#000000" stroke-width="3" stroke-dasharray="9,6"/>
    <text transform="matrix(1, 0, 0, 1, 44.56, 184.862)">
      <tspan x="-11.875" y="7" font-family="Avenir-Medium" font-size="24" fill="#525252">0</tspan>
      <tspan x="1.469" y="7" font-family="LucidaGrande-Bold" font-size="24" fill="#525252">°</tspan>
      <tspan x="11.875" y="7" font-family="Avenir-Medium" font-size="24" fill="#656565">  </tspan>
    </text>
    <text transform="matrix(1, 0, 0, 1, 119.06, 17.5)">
      <tspan x="-18.547" y="6.5" font-family="Avenir-Medium" font-size="24" fill="#525252">90</tspan>
      <tspan x="8.141" y="6.5" font-family="LucidaGrande-Bold" font-size="24" fill="#525252">°</tspan>
      <tspan x="18.547" y="6.5" font-family="Avenir-Medium" font-size="24" fill="#656565">  </tspan>
    </text>
    <text transform="matrix(1, 0, 0, 1, 206.81, 150.362)">
      <tspan x="-25.219" y="6.5" font-family="Avenir-Medium" font-size="24" fill="#525252">180</tspan>
      <tspan x="14.813" y="6.5" font-family="LucidaGrande-Bold" font-size="24" fill="#525252">°</tspan>
      <tspan x="25.219" y="6.5" font-family="Avenir-Medium" font-size="24" fill="#656565">  </tspan>
    </text>
    <text transform="matrix(1, 0, 0, 1, 260.81, 315)">
      <tspan x="-25.219" y="6.5" font-family="Avenir-Medium" font-size="24" fill="#525252">270</tspan>
      <tspan x="14.813" y="6.5" font-family="LucidaGrande-Bold" font-size="24" fill="#525252">°</tspan>
      <tspan x="25.219" y="6.5" font-family="Avenir-Medium" font-size="24" fill="#656565">  </tspan>
    </text>
    <text transform="matrix(1, 0, 0, 1, 352.06, 184.862)">
      <tspan x="-25.219" y="6.5" font-family="Avenir-Medium" font-size="24" fill="#525252">360</tspan>
      <tspan x="14.813" y="6.5" font-family="LucidaGrande-Bold" font-size="24" fill="#525252">°</tspan>
      <tspan x="25.219" y="6.5" font-family="Avenir-Medium" font-size="24" fill="#656565">  </tspan>
    </text>
  </g>
</svg>
