<?xml version="1.0" encoding="UTF-8"?>
<!DOCTYPE svg PUBLIC "-//W3C//DTD SVG 1.1//EN" "http://www.w3.org/Graphics/SVG/1.1/DTD/svg11.dtd">
<svg version="1.1" xmlns="http://www.w3.org/2000/svg" xmlns:xlink="http://www.w3.org/1999/xlink" x="0" y="0" width="946.149" height="388" viewBox="0, 0, 946.149, 388">
  <g id="Layer_1">
    <path d="M241.866,186.099 C244.975,176.761 252.432,169.469 257.106,166.769" fill-opacity="0" stroke="#43699F" stroke-width="6"/>
    <g>
      <g>
        <path d="M541.649,201.5 C541.649,201.5 569.649,67.562 613.649,68.505" fill-opacity="0" stroke="#000000" stroke-width="3"/>
        <path d="M683.649,201.5 C683.649,201.5 655.649,67.562 611.649,68.505" fill-opacity="0" stroke="#000000" stroke-width="3"/>
      </g>
      <g>
        <path d="M683.649,201.5 C683.649,201.5 711.649,335.438 755.649,334.495" fill-opacity="0" stroke="#000000" stroke-width="3"/>
        <path d="M825.649,201.5 C825.649,201.5 797.649,335.438 753.649,334.495" fill-opacity="0" stroke="#000000" stroke-width="3"/>
      </g>
    </g>
    <path d="M284.649,334.5 C211.195,334.5 151.649,274.954 151.649,201.5 C151.649,128.046 211.195,68.5 284.649,68.5 C358.103,68.5 417.649,128.046 417.649,201.5 C417.649,274.954 358.103,334.5 284.649,334.5 z" fill-opacity="0" stroke="#000000" stroke-width="3"/>
    <path d="M76.649,201.5 L941.649,201.5" fill-opacity="0" stroke="#000000" stroke-width="3"/>
    <path d="M283.649,5.5 L283.649,383.5" fill-opacity="0" stroke="#000000" stroke-width="3"/>
    <path d="M555.649,153.5 L555.649,201.5" fill-opacity="0" stroke="#C81919" stroke-width="3"/>
    <path d="M579.649,99.5 L579.649,201.5" fill-opacity="0" stroke="#C81919" stroke-width="3"/>
    <path d="M579.649,99.5 L198.649,99.5" fill-opacity="0" stroke="#656565" stroke-width="3" stroke-dasharray="18,6,6,6"/>
    <path d="M555.649,153.5 L160.649,153.5" fill-opacity="0" stroke="#656565" stroke-width="3" stroke-dasharray="18,6,6,6"/>
    <path d="M284.649,201.5 L160.649,153.5" fill-opacity="0" stroke="#C81919" stroke-width="3"/>
    <path d="M284.649,201.5 L198.649,99.5" fill-opacity="0" stroke="#C81919" stroke-width="3"/>
    <g>
      <path d="M115.649,147.167 C123.953,115.24 145.237,88.39 162.073,74.187" fill-opacity="0" stroke="#43699F" stroke-width="3"/>
      <path d="M162.073,74.187 L162.387,79.225 L168.759,69.102 L157.302,72.539 z" fill="#43699F" fill-opacity="1" stroke="#43699F" stroke-width="3" stroke-opacity="1"/>
    </g>
    <text transform="matrix(0.574, -0.819, 0.819, 0.574, 138.639, 101.841)">
      <tspan x="-92.09" y="-7.5" font-family="Avenir-Medium" font-size="20" fill="#656565">Direction of rotation</tspan>
    </text>
    <text transform="matrix(1, 0, 0, 1, 72.525, 284)">
      <tspan x="-65.136" y="-26" font-family="Avenir-Medium" font-size="24" fill="#656565">Phase angle</tspan>
      <tspan x="-47.568" y="7" font-family="Avenir-Medium" font-size="24" fill="#656565">between</tspan>
      <tspan x="-57.792" y="40" font-family="Avenir-Medium" font-size="24" fill="#656565">two points</tspan>
    </text>
    <g>
      <path d="M62.748,231.672 C152.682,143.408 212.846,158.012 233.719,167.698" fill-opacity="0" stroke="#656565" stroke-width="3"/>
      <path d="M233.719,167.698 L229.203,169.952 L241.009,171.871 L233.376,162.662 z" fill="#656565" fill-opacity="1" stroke="#656565" stroke-width="3" stroke-opacity="1"/>
    </g>
    <text transform="matrix(1, 0, 0, 1, 141.807, 150)">
      <tspan x="-9.342" y="11" font-family="Avenir-Medium" font-size="36" fill="#C81919">a</tspan>
    </text>
    <text transform="matrix(1, 0, 0, 1, 187.151, 86)">
      <tspan x="-10.998" y="11" font-family="Avenir-Medium" font-size="36" fill="#C81919">b</tspan>
    </text>
    <text transform="matrix(1, 0, 0, 1, 572.151, 81)">
      <tspan x="-10.998" y="11" font-family="Avenir-Medium" font-size="36" fill="#C81919">b</tspan>
    </text>
    <text transform="matrix(1, 0, 0, 1, 537.491, 164.599)">
      <tspan x="-9.342" y="11" font-family="Avenir-Medium" font-size="36" fill="#C81919">a</tspan>
    </text>
    <text transform="matrix(1, 0, 0, 1, 133.175, 218)">
      <tspan x="-11.875" y="7" font-family="Avenir-Medium" font-size="24" fill="#656565">0</tspan>
      <tspan x="1.469" y="7" font-family="LucidaGrande-Bold" font-size="24" fill="#656565">°</tspan>
      <tspan x="11.875" y="7" font-family="Avenir-Medium" font-size="24" fill="#656565">  </tspan>
    </text>
    <text transform="matrix(1, 0, 0, 1, 543.274, 221.362)">
      <tspan x="-11.875" y="7" font-family="Avenir-Medium" font-size="24" fill="#656565">0</tspan>
      <tspan x="1.469" y="7" font-family="LucidaGrande-Bold" font-size="24" fill="#656565">°</tspan>
      <tspan x="11.875" y="7" font-family="Avenir-Medium" font-size="24" fill="#656565">  </tspan>
    </text>
    <text transform="matrix(1, 0, 0, 1, 309.274, 54)">
      <tspan x="-18.547" y="6.5" font-family="Avenir-Medium" font-size="24" fill="#656565">90</tspan>
      <tspan x="8.141" y="6.5" font-family="LucidaGrande-Bold" font-size="24" fill="#656565">°</tspan>
      <tspan x="18.547" y="6.5" font-family="Avenir-Medium" font-size="24" fill="#656565">  </tspan>
    </text>
    <text transform="matrix(1, 0, 0, 1, 617.774, 54)">
      <tspan x="-18.547" y="6.5" font-family="Avenir-Medium" font-size="24" fill="#656565">90</tspan>
      <tspan x="8.141" y="6.5" font-family="LucidaGrande-Bold" font-size="24" fill="#656565">°</tspan>
      <tspan x="18.547" y="6.5" font-family="Avenir-Medium" font-size="24" fill="#656565">  </tspan>
    </text>
    <text transform="matrix(1, 0, 0, 1, 446.024, 226.862)">
      <tspan x="-25.219" y="6.5" font-family="Avenir-Medium" font-size="24" fill="#656565">180</tspan>
      <tspan x="14.813" y="6.5" font-family="LucidaGrande-Bold" font-size="24" fill="#656565">°</tspan>
      <tspan x="25.219" y="6.5" font-family="Avenir-Medium" font-size="24" fill="#656565">  </tspan>
    </text>
    <text transform="matrix(1, 0, 0, 1, 705.524, 186.862)">
      <tspan x="-25.219" y="6.5" font-family="Avenir-Medium" font-size="24" fill="#656565">180</tspan>
      <tspan x="14.813" y="6.5" font-family="LucidaGrande-Bold" font-size="24" fill="#656565">°</tspan>
      <tspan x="25.219" y="6.5" font-family="Avenir-Medium" font-size="24" fill="#656565">  </tspan>
    </text>
    <text transform="matrix(1, 0, 0, 1, 319.524, 351.5)">
      <tspan x="-25.219" y="6.5" font-family="Avenir-Medium" font-size="24" fill="#656565">270</tspan>
      <tspan x="14.813" y="6.5" font-family="LucidaGrande-Bold" font-size="24" fill="#656565">°</tspan>
      <tspan x="25.219" y="6.5" font-family="Avenir-Medium" font-size="24" fill="#656565">  </tspan>
    </text>
    <text transform="matrix(1, 0, 0, 1, 759.524, 351.5)">
      <tspan x="-25.219" y="6.5" font-family="Avenir-Medium" font-size="24" fill="#656565">270</tspan>
      <tspan x="14.813" y="6.5" font-family="LucidaGrande-Bold" font-size="24" fill="#656565">°</tspan>
      <tspan x="25.219" y="6.5" font-family="Avenir-Medium" font-size="24" fill="#656565">  </tspan>
    </text>
  </g>
</svg>
