<?xml version="1.0" encoding="UTF-8"?>
<!DOCTYPE svg PUBLIC "-//W3C//DTD SVG 1.1//EN" "http://www.w3.org/Graphics/SVG/1.1/DTD/svg11.dtd">
<svg version="1.1" xmlns="http://www.w3.org/2000/svg" xmlns:xlink="http://www.w3.org/1999/xlink" x="0" y="0" width="630" height="617.502" viewBox="0, 0, 630, 617.502">
  <g id="Layer_1">
    <g>
      <g>
        <path d="M225.5,165 C225.5,165 253.5,31.062 297.5,32.005" fill-opacity="0" stroke="#000000" stroke-width="3"/>
        <path d="M367.5,165 C367.5,165 339.5,31.062 295.5,32.005" fill-opacity="0" stroke="#000000" stroke-width="3"/>
      </g>
      <g>
        <path d="M367.5,165 C367.5,165 395.5,298.939 439.5,297.995" fill-opacity="0" stroke="#000000" stroke-width="3"/>
        <path d="M509.5,165 C509.5,165 481.5,298.939 437.5,297.995" fill-opacity="0" stroke="#000000" stroke-width="3"/>
      </g>
    </g>
    <g>
      <g>
        <g>
          <path d="M225.5,416.278 C232.869,397.394 240.391,377.666 253.56,361.892 C260.046,354.123 268.542,347.032 279.156,347.007" fill-opacity="0" stroke="#000000" stroke-width="3"/>
          <path d="M349.156,480.002 C349.156,480.002 321.156,346.064 277.156,347.007" fill-opacity="0" stroke="#000000" stroke-width="3"/>
        </g>
        <g>
          <path d="M349.156,480.002 C349.156,480.002 377.156,613.94 421.156,612.997" fill-opacity="0" stroke="#000000" stroke-width="3"/>
          <path d="M491.156,480.002 C491.156,480.002 463.156,613.94 419.156,612.997" fill-opacity="0" stroke="#000000" stroke-width="3"/>
        </g>
      </g>
      <path d="M491.158,480.002 C491.158,480.002 519.158,346.064 563.158,347.007" fill-opacity="0" stroke="#000000" stroke-width="3"/>
    </g>
    <path d="M188.065,165 L625.5,165" fill-opacity="0" stroke="#000000" stroke-width="3"/>
    <path d="M166.069,463 L603.504,463" fill-opacity="0" stroke="#000000" stroke-width="3"/>
    <path d="M225.5,467.016 L225.5,142" fill-opacity="0" stroke="#656565" stroke-width="3" stroke-dasharray="18,6,6,6"/>
    <path d="M367.5,548.016 L367.5,158.5" fill-opacity="0" stroke="#656565" stroke-width="3" stroke-dasharray="18,6,6,6"/>
    <path d="M346.5,463 L346.5,168.362" fill-opacity="0" stroke="#656565" stroke-width="3" stroke-dasharray="18,6,6,6"/>
    <text transform="matrix(1, 0, 0, 1, 106.387, 315.181)">
      <tspan x="-48.024" y="-13.5" font-family="Avenir-Medium" font-size="36" fill="#656565">Phase</tspan>
      <tspan x="-82.026" y="35.5" font-family="Avenir-Medium" font-size="36" fill="#656565">difference</tspan>
    </text>
    <text transform="matrix(1, 0, 0, 1, 227.125, 184.862)">
      <tspan x="-11.875" y="7" font-family="Avenir-Medium" font-size="24" fill="#656565">0</tspan>
      <tspan x="1.469" y="7" font-family="LucidaGrande-Bold" font-size="24" fill="#656565">째</tspan>
      <tspan x="11.875" y="7" font-family="Avenir-Medium" font-size="24" fill="#656565">  </tspan>
    </text>
    <text transform="matrix(1, 0, 0, 1, 301.625, 17.5)">
      <tspan x="-18.547" y="6.5" font-family="Avenir-Medium" font-size="24" fill="#656565">90</tspan>
      <tspan x="8.141" y="6.5" font-family="LucidaGrande-Bold" font-size="24" fill="#656565">째</tspan>
      <tspan x="18.547" y="6.5" font-family="Avenir-Medium" font-size="24" fill="#656565">  </tspan>
    </text>
    <text transform="matrix(1, 0, 0, 1, 389.375, 150.362)">
      <tspan x="-25.219" y="6.5" font-family="Avenir-Medium" font-size="24" fill="#656565">180</tspan>
      <tspan x="14.813" y="6.5" font-family="LucidaGrande-Bold" font-size="24" fill="#656565">째</tspan>
      <tspan x="25.219" y="6.5" font-family="Avenir-Medium" font-size="24" fill="#656565">  </tspan>
    </text>
    <text transform="matrix(1, 0, 0, 1, 443.375, 315)">
      <tspan x="-25.219" y="6.5" font-family="Avenir-Medium" font-size="24" fill="#656565">270</tspan>
      <tspan x="14.813" y="6.5" font-family="LucidaGrande-Bold" font-size="24" fill="#656565">째</tspan>
      <tspan x="25.219" y="6.5" font-family="Avenir-Medium" font-size="24" fill="#656565">  </tspan>
    </text>
    <g>
      <path d="M312.48,344.333 L335.1,344.333" fill-opacity="0" stroke="#D14343" stroke-width="3"/>
      <path d="M335.1,344.333 L332.3,348.533 L343.5,344.333 L332.3,340.133 z" fill="#D14343" fill-opacity="1" stroke="#D14343" stroke-width="3" stroke-opacity="1"/>
    </g>
    <g>
      <path d="M378.177,344.333 L400.796,344.333" fill-opacity="0" stroke="#D14343" stroke-width="3"/>
      <path d="M378.177,344.333 L380.977,340.133 L369.777,344.333 L380.977,348.533 z" fill="#D14343" fill-opacity="1" stroke="#D14343" stroke-width="3" stroke-opacity="1"/>
    </g>
    <g>
      <path d="M355.571,332.76 C339.896,291.827 185.263,302.986 156.219,305.989" fill-opacity="0" stroke="#656565" stroke-width="3"/>
      <path d="M355.571,332.76 L351.052,330.511 L356.628,341.094 L359.385,329.454 z" fill="#656565" fill-opacity="1" stroke="#656565" stroke-width="3" stroke-opacity="1"/>
    </g>
  </g>
</svg>
